<svg width="20" height="21" viewBox="0 0 20 21" fill="none" xmlns="http://www.w3.org/2000/svg">
<path d="M15 10.2656V10.7344C15 11.0469 14.8438 11.2031 14.5312 11.2031H10.7031V15.0312C10.7031 15.3438 10.5469 15.5 10.2344 15.5H9.76562C9.45312 15.5 9.29688 15.3438 9.29688 15.0312V11.2031H5.46875C5.15625 11.2031 5 11.0469 5 10.7344V10.2656C5 9.95312 5.15625 9.79688 5.46875 9.79688H9.29688V5.96875C9.29688 5.65625 9.45312 5.5 9.76562 5.5H10.2344C10.5469 5.5 10.7031 5.65625 10.7031 5.96875V9.79688H14.5312C14.8438 9.79688 15 9.95312 15 10.2656ZM16.8359 3.66406C18.737 5.53906 19.6875 7.81771 19.6875 10.5C19.6875 13.1823 18.737 15.474 16.8359 17.375C14.9609 19.25 12.6823 20.1875 10 20.1875C7.31771 20.1875 5.02604 19.25 3.125 17.375C1.25 15.474 0.3125 13.1823 0.3125 10.5C0.3125 7.81771 1.25 5.53906 3.125 3.66406C5.02604 1.76302 7.31771 0.8125 10 0.8125C12.6823 0.8125 14.9609 1.76302 16.8359 3.66406ZM18.4375 10.5C18.4375 8.15625 17.6042 6.16406 15.9375 4.52344C14.2969 2.88281 12.3177 2.0625 10 2.0625C7.65625 2.0625 5.66406 2.89583 4.02344 4.5625C2.38281 6.20312 1.5625 8.18229 1.5625 10.5C1.5625 12.8438 2.38281 14.8359 4.02344 16.4766C5.6901 18.1172 7.68229 18.9375 10 18.9375C12.3438 18.9375 14.3359 18.1172 15.9766 16.4766C17.6172 14.8099 18.4375 12.8177 18.4375 10.5Z" fill="#686B87"/>
</svg>
