<svg width="18" height="28" viewBox="0 0 18 28" fill="none" xmlns="http://www.w3.org/2000/svg">
<path d="M4.38185 17.0902C3.76991 17.8736 3.90826 19.0052 4.69087 19.6178C5.47348 20.2303 6.60399 20.0918 7.21593 19.3084L13.6182 11.1124C14.1271 10.461 14.1273 9.54639 13.6187 8.89476L7.21637 0.692111C6.60473 -0.0915174 5.47428 -0.230453 4.69143 0.38179C3.90858 0.994033 3.76978 2.12561 4.38141 2.90924L9.91811 10.0029L4.38185 17.0902Z" fill="black"/>
<path d="M10.3121 10.3107L10.5525 10.003L10.3123 9.69523L4.77557 2.6016C4.33365 2.03542 4.43406 1.21782 4.99945 0.775646C5.56454 0.333704 6.38053 0.433868 6.82221 0.999754L13.2245 9.2024C13.5919 9.67316 13.5918 10.334 13.2242 10.8046L6.8219 19.0006C6.37999 19.5664 5.56396 19.6662 4.99905 19.224C4.43383 18.7816 4.33374 17.964 4.77588 17.398L10.3121 10.3107Z" stroke="black"/>
</svg>
