<svg width="25" height="28" viewBox="0 0 25 28" fill="none" xmlns="http://www.w3.org/2000/svg">
<path d="M4.38185 17.0902C3.76991 17.8736 3.90826 19.0052 4.69087 19.6178C5.47348 20.2303 6.60399 20.0918 7.21593 19.3084L13.6182 11.1124C14.1271 10.461 14.1273 9.54639 13.6187 8.89476L7.21637 0.692111C6.60473 -0.0915174 5.47428 -0.230453 4.69143 0.38179C3.90858 0.994033 3.76978 2.12561 4.38141 2.90924L9.91811 10.0029L4.38185 17.0902Z" fill="black"/>
<path d="M10.3121 10.3107L10.5525 10.003L10.3123 9.69523L4.77557 2.6016C4.33365 2.03542 4.43406 1.21782 4.99945 0.775646C5.56454 0.333704 6.38053 0.433868 6.82221 0.999754L13.2245 9.2024C13.5919 9.67316 13.5918 10.334 13.2242 10.8046L6.8219 19.0006C6.37999 19.5664 5.56396 19.6662 4.99905 19.224C4.43383 18.7816 4.33374 17.964 4.77588 17.398L10.3121 10.3107Z" stroke="black"/>
<path d="M11.3818 17.0902C10.7699 17.8736 10.9083 19.0052 11.6909 19.6178C12.4735 20.2303 13.604 20.0918 14.2159 19.3084L20.6182 11.1124C21.1271 10.461 21.1273 9.54639 20.6187 8.89476L14.2164 0.692111C13.6047 -0.0915174 12.4743 -0.230453 11.6914 0.38179C10.9086 0.994033 10.7698 2.12561 11.3814 2.90924L16.9181 10.0029L11.3818 17.0902Z" fill="black"/>
<path d="M17.3121 10.3107L17.5525 10.003L17.3123 9.69523L11.7756 2.6016C11.3337 2.03542 11.4341 1.21782 11.9994 0.775646C12.5645 0.333704 13.3805 0.433868 13.8222 0.999754L20.2245 9.2024C20.5919 9.67316 20.5918 10.334 20.2242 10.8046L13.8219 19.0006C13.38 19.5664 12.564 19.6662 11.999 19.224C11.4338 18.7816 11.3337 17.964 11.7759 17.398L17.3121 10.3107Z" stroke="black"/>
</svg>
