<svg width="21" height="20" viewBox="0 0 21 20" fill="none" xmlns="http://www.w3.org/2000/svg">
<path d="M0.195312 7.10156C-0.0390625 6.86719 -0.0390625 6.64583 0.195312 6.4375L4.72656 1.90625C4.9349 1.67188 5.14323 1.67188 5.35156 1.90625L9.88281 6.4375C10.1172 6.64583 10.1172 6.86719 9.88281 7.10156L9.60938 7.375C9.40104 7.60938 9.17969 7.60938 8.94531 7.375L5.70312 4.09375V18.7812C5.70312 19.0938 5.54688 19.25 5.23438 19.25H4.84375C4.53125 19.25 4.375 19.0938 4.375 18.7812V4.09375L1.13281 7.375C1.02865 7.47917 0.911458 7.53125 0.78125 7.53125C0.651042 7.53125 0.546875 7.47917 0.46875 7.375L0.195312 7.10156Z" fill="#686B87"/>
<path d="M19.8828 13.8984C20.1172 14.1328 20.1172 14.3542 19.8828 14.5625L15.3516 19.0938C15.1432 19.3281 14.9349 19.3281 14.7266 19.0938L10.1953 14.5625C9.96094 14.3542 9.96094 14.1328 10.1953 13.8984L10.4688 13.625C10.6771 13.3906 10.8984 13.3906 11.1328 13.625L14.375 16.9062V2.21875C14.375 1.90625 14.5312 1.75 14.8438 1.75H15.2344C15.5469 1.75 15.7031 1.90625 15.7031 2.21875V16.9062L18.9453 13.625C19.1797 13.3906 19.401 13.3906 19.6094 13.625L19.8828 13.8984Z" fill="#686B87"/>
</svg>
