<svg width="18" height="15" viewBox="0 0 18 15" fill="none" xmlns="http://www.w3.org/2000/svg">
  <path d="M0 4.99609V13.3785C0 14.2727 0.709717 15.0002 1.58203 15.0002H16.418C17.2903 15.0002 18 14.2727 18 13.3785V4.99609H0ZM9.87712 8.30484L11.1702 6.63611C11.3097 6.4562 11.545 6.38623 11.7569 6.46197C11.9686 6.53771 12.1105 6.74253 12.1105 6.97242V11.6011H12.5226C12.8138 11.6011 13.05 11.843 13.05 12.1416C13.05 12.4402 12.8138 12.6822 12.5226 12.6822H10.6437C10.3524 12.6822 10.1163 12.4402 10.1163 12.1416C10.1163 11.843 10.3524 11.6011 10.6437 11.6011H11.0558V8.52191L10.7029 8.97731C10.5217 9.211 10.1901 9.24999 9.96199 9.06431C9.73389 8.87863 9.69598 8.53852 9.87712 8.30484ZM6.94405 10.0976H5.47737C5.18623 10.0976 4.95003 9.8556 4.95003 9.55702C4.95003 9.25844 5.18623 9.01645 5.47737 9.01645H6.94405C7.23491 9.01645 7.47139 8.77404 7.47139 8.47588V8.05356C7.47139 7.75554 7.23491 7.51299 6.94405 7.51299H5.47737C5.18623 7.51299 4.95003 7.271 4.95003 6.97242C4.95003 6.67383 5.18623 6.43184 5.47737 6.43184H6.94405C7.8165 6.43184 8.52608 7.15936 8.52608 8.05356V8.47588C8.52608 8.89088 8.37309 9.26984 8.12206 9.55702C8.37309 9.8442 8.52608 10.2232 8.52608 10.6382V11.0605C8.52608 11.9547 7.8165 12.6822 6.94405 12.6822H5.47737C5.18623 12.6822 4.95003 12.4402 4.95003 12.1416C4.95003 11.843 5.18623 11.6011 5.47737 11.6011H6.94405C7.23491 11.6011 7.47139 11.3586 7.47139 11.0605V10.6382C7.47139 10.3401 7.23491 10.0976 6.94405 10.0976Z" fill="#808080"/>
  <path d="M18 3.91478V2.69286C18 1.79852 17.2903 1.07115 16.418 1.07115H15.5517V0.540571C15.5517 0.24199 15.3156 0 15.0244 0C14.7331 0 14.497 0.24199 14.497 0.540571V1.07115H13.142V0.540571C13.142 0.24199 12.9059 0 12.6146 0C12.3234 0 12.0873 0.24199 12.0873 0.540571V1.07115H10.7323V0.540571C10.7323 0.24199 10.4961 0 10.2049 0C9.91365 0 9.67758 0.24199 9.67758 0.540571V1.07115H8.32242V0.540571C8.32242 0.24199 8.08635 0 7.79507 0C7.50394 0 7.26773 0.24199 7.26773 0.540571V1.07115H5.9127V0.540571C5.9127 0.24199 5.67664 0 5.38536 0C5.09409 0 4.85802 0.24199 4.85802 0.540571V1.07115H3.50299V0.540571C3.50299 0.24199 3.26692 0 2.97565 0C2.68437 0 2.4483 0.24199 2.4483 0.540571V1.07115H1.58203C0.709717 1.07115 0 1.79852 0 2.69286V3.91478H18Z" fill="#808080"/>
</svg>
