<svg width="20" height="26" viewBox="0 0 20 26" fill="none" xmlns="http://www.w3.org/2000/svg">
<path d="M10 0C4.48597 0 0 4.22409 0 9.41617C0 15.8597 8.94902 25.3192 9.33003 25.7188C9.68791 26.0941 10.3127 26.0934 10.67 25.7188C11.051 25.3192 20 15.8597 20 9.41617C19.9999 4.22409 15.514 0 10 0ZM10 14.1537C7.22575 14.1537 4.9688 12.0285 4.9688 9.41617C4.9688 6.80388 7.22581 4.67869 10 4.67869C12.7742 4.67869 15.0311 6.80393 15.0311 9.41623C15.0311 12.0285 12.7742 14.1537 10 14.1537Z" fill="#3374AA"/>
</svg>
