<svg width="28" height="33" viewBox="0 0 28 33" fill="none" xmlns="http://www.w3.org/2000/svg">
<path fill-rule="evenodd" clip-rule="evenodd" d="M27.3334 13.6667C27.3334 17.3486 25.841 20.682 23.4282 23.0948L23.4282 23.0948L14.0001 32.5229L4.57199 23.0948L4.57201 23.0948C2.15914 20.682 0.666748 17.3486 0.666748 13.6667C0.666748 6.30291 6.63628 0.333374 14.0001 0.333374C21.3639 0.333374 27.3334 6.30291 27.3334 13.6667ZM14.0001 20.3334C17.682 20.3334 20.6667 17.3486 20.6667 13.6667C20.6667 9.98481 17.682 7.00004 14.0001 7.00004C10.3182 7.00004 7.33342 9.98481 7.33342 13.6667C7.33342 17.3486 10.3182 20.3334 14.0001 20.3334Z" fill="#0A2D90"/>
</svg>
